<svg width="116" height="115" viewBox="0 0 116 115" fill="none" xmlns="http://www.w3.org/2000/svg">
<circle cx="57.9094" cy="57.1545" r="57.1545" fill="#B61263"/>
<circle cx="38.195" cy="57.2527" r="11.4309" transform="rotate(-30 38.195 57.2527)" fill="#FFD8EC"/>
<path d="M60.6483 61.8499C64.4362 68.4107 72.8254 70.6586 79.3862 66.8707L56.5244 27.2729C52.7365 20.7121 44.3473 18.4642 37.7865 22.2521L60.6483 61.8499Z" fill="#FFD8EC"/>
<path d="M84.3359 64.013C90.8967 60.2251 93.1446 51.8359 89.3567 45.2751L84.2128 36.3656C80.425 29.8048 72.0357 27.5569 65.4749 31.3448L84.3359 64.013Z" fill="#FFD8EC"/>
<path d="M28.636 85.6597L26.383 85.6597L24.9839 83.3141L24.9839 85.6597L23.0703 85.6597L23.0703 80.1043L24.9839 80.1043L24.9839 82.2853L26.3213 80.1043L28.4611 80.1043L26.7225 82.7689L28.636 85.6597ZM32.8835 80.1043L34.9411 80.1043L32.6058 85.4128C31.8548 87.1206 31.1758 87.7276 29.7355 87.7276L29.077 87.7276L29.077 86.0918L29.612 86.0918C30.3424 86.0918 30.5585 85.8963 30.8157 85.2071L28.5215 80.1043L30.5996 80.1043L31.7827 83.1701L32.8835 80.1043ZM35.5081 80.1043L40.8475 80.1043L40.8475 85.6597L38.934 85.6597L38.934 81.7504L37.4114 81.7504L37.4114 85.6597L35.5081 85.6597L35.5081 80.1043ZM46.1431 80.1043L47.2542 80.1043L47.2542 85.6597L45.4024 85.6597L45.4024 83.1701L43.1699 85.6597L42.0485 85.6597L42.0485 80.1043L43.8901 80.1043L43.8901 82.5734L46.1431 80.1043ZM50.6475 83.6845L50.6475 81.9458L54.4129 81.9458L54.4129 83.6845L50.6475 83.6845ZM61.8963 80.1043L63.0074 80.1043L63.0074 85.6597L61.1556 85.6597L61.1556 83.1701L58.9231 85.6597L57.8018 85.6597L57.8018 80.1043L59.6433 80.1043L59.6433 82.5734L61.8963 80.1043ZM71.3698 80.1043L71.3698 81.7606L69.6311 81.7606L69.6311 85.6597L67.7485 85.6597L67.7485 81.7606L65.9995 81.7606L65.9995 80.1043L71.3698 80.1043ZM74.8159 85.8449C73.0052 85.8449 71.709 84.6001 71.709 82.882C71.709 81.164 73.0052 79.9294 74.8159 79.9294C76.6265 79.9294 77.9331 81.164 77.9331 82.882C77.9331 84.6001 76.6265 85.8449 74.8159 85.8449ZM74.8159 84.1268C75.5155 84.1268 76.0196 83.6227 76.0196 82.8923C76.0196 82.1619 75.5155 81.6475 74.8159 81.6475C74.1266 81.6475 73.6225 82.1516 73.6225 82.8923C73.6225 83.6227 74.1266 84.1268 74.8159 84.1268ZM81.7926 80.1043L83.6856 80.1043L83.6856 85.6597L81.7926 85.6597L81.7926 84.0034C81.4943 84.0857 81.1754 84.1268 80.8667 84.1268C79.447 84.1268 78.5211 83.2215 78.5211 81.7092L78.5211 80.1043L80.4141 80.1043L80.4141 81.7195C80.4141 82.275 80.661 82.5425 81.1548 82.5425C81.3811 82.5425 81.628 82.4911 81.7926 82.3985L81.7926 80.1043ZM90.4534 85.6597L88.2003 85.6597L86.8012 83.3141L86.8012 85.6597L84.8877 85.6597L84.8877 80.1043L86.8012 80.1043L86.8012 82.2853L88.1386 80.1043L90.2785 80.1043L88.5398 82.7689L90.4534 85.6597ZM95.1701 80.1043L96.6001 80.1043L96.6001 85.6597L95.1186 85.6597L94.954 85.2688C94.5014 85.6392 93.9253 85.8449 93.2771 85.8449C91.5796 85.8449 90.3657 84.6104 90.3657 82.882C90.3657 81.164 91.5796 79.9397 93.2771 79.9397C93.9355 79.9397 94.522 80.1557 94.9746 80.5364L95.1701 80.1043ZM93.5343 84.1577C94.2545 84.1577 94.7792 83.6125 94.7792 82.882C94.7792 82.1619 94.2545 81.6269 93.5343 81.6269C92.8142 81.6269 92.2895 82.1619 92.2895 82.882C92.2895 83.6125 92.8142 84.1577 93.5343 84.1577Z" fill="white"/>
</svg>
